PathFileType	4	(X/Y/Z)	C:\Users\u0145647\OneDrive - KU Leuven\KU Leuven\c3d2osim\CP16\T0\Data\Processed\ViconC3D\CP16_T0_11_gapFilled.trc
DataRate	CameraRate	NumFrames	NumMarkers	Units	OrigDataRate	OrigDataStartFrame	OrigNumFrames
100.000000	100.000000	10	47	mm	100.000000	334	666
Frame#	Time	C7			T10			CLAV			STRN			LSHO			RSHO			RBAK			LASI			RASI			LPSI			RPSI			LLAT			RLAT			LF1			LF2			LF3			LTHI			LKNE			LMEK			RF1			RF2			RF3			RTHI			RKNE			RMEK			LT1			LT2			LT3			LTIB			LMM			LANK			RT1			RT2			RT3			RTIB			RANK			RMM			LHEE			LSTL			LLCA			LTOE			LCM5			RHEE			RSTL			RLCA			RTOE			RCM5
		X1	Y1	Z1	X2	Y2	Z2	X3	Y3	Z3	X4	Y4	Z4	X5	Y5	Z5	X6	Y6	Z6	X7	Y7	Z7	X8	Y8	Z8	X9	Y9	Z9	X10	Y10	Z10	X11	Y11	Z11	X12	Y12	Z12	X13	Y13	Z13	X14	Y14	Z14	X15	Y15	Z15	X16	Y16	Z16	X17	Y17	Z17	X18	Y18	Z18	X19	Y19	Z19	X20	Y20	Z20	X21	Y21	Z21	X22	Y22	Z22	X23	Y23	Z23	X24	Y24	Z24	X25	Y25	Z25	X26	Y26	Z26	X27	Y27	Z27	X28	Y28	Z28	X29	Y29	Z29	X30	Y30	Z30	X31	Y31	Z31	X32	Y32	Z32	X33	Y33	Z33	X34	Y34	Z34	X35	Y35	Z35	X36	Y36	Z36	X37	Y37	Z37	X38	Y38	Z38	X39	Y39	Z39	X40	Y40	Z40	X41	Y41	Z41	X42	Y42	Z42	X43	Y43	Z43	X44	Y44	Z44	X45	Y45	Z45	X46	Y46	Z46	X47	Y47	Z47

334	3.33	442.49	1409.7	-170.7	370.49	1138.3	-208.26	559.07	1310.2	-136.53	580.34	1138.6	-162.59	544.16	1344	-333.33	445.71	1324.6	22.259	365	1310.8	-64.426	531.34	881.99	-358.67	539.99	871.53	-110.49	373.06	921.93	-272.65	374.39	903.76	-194.04	474.26	973.21	-365.51	477.18	930.16	-80.973	462.65	636.95	-390.08	484.79	681.49	-391.37	439.34	675.88	-398.61	468.67	538.83	-418.12	423.06	416.97	-351.41	413.33	419.8	-234.25	562.19	679.46	-53.473	522.05	696.21	-59.26	552.23	722.42	-58.052	604.98	606.51	-2.659	683.65	474.59	-46.531	685.2	467.63	-165.55	357.54	363.83	-363.06	376.97	331.17	-347.18	333.69	320.88	-361.32	295.7	251.93	-408.82	132.37	124.61	-283.84	121.69	144.56	-372.55	679.62	334.3	-31.638	669.93	370.3	-28	705.09	362.84	-38.762	696.07	244.23	9.5493	648.98	69.973	-29.486	656.99	72.902	-123.06	68.505	154.04	-321.02	127.24	88.499	-295.65	113.25	114.43	-383.62	201.92	57.699	-392.27	167.14	60.277	-429.07	588.25	59.235	-67.833	668.24	40.055	-118.12	666.8	45.907	-21.905	769.99	48.989	-44.739	738.3	38.378	-1.0221
335	3.34	452.74	1410.5	-166.08	382.87	1139.3	-207.16	570.05	1311.6	-132.29	592.3	1140.2	-159.39	555.56	1346.9	-328.88	455.92	1323.8	26.042	375.7	1310.1	-61.281	544.42	882.91	-358.88	553.1	873.49	-111.65	386.46	924.04	-274.17	387.24	906.99	-194.66	487.6	974.61	-366.08	491.03	931.47	-80.381	476.06	637.59	-389.15	498.09	681.85	-390.1	452.79	676.43	-397.97	482.5	539.27	-416.98	436.12	418.13	-350.2	428.11	420.94	-232.37	571.85	680.54	-52.36	532.9	698.68	-58.274	563.83	724.27	-57.342	610.29	604.77	-1.5009	690.1	472.87	-45.186	690.63	464.62	-163.81	370.05	365.67	-360.31	389.28	332.9	-345.36	345.7	322.72	-358.43	306.1	254.81	-405.09	142.97	129.62	-278.2	130.49	150.12	-366.51	683.29	331.89	-30.353	673.31	368.22	-26.634	709.2	360.09	-36.93	697.44	242	11.003	649.09	69.667	-29.259	657.36	72.793	-122.71	79.101	161.3	-313.02	136.73	93.712	-289.93	120.8	119.82	-377.52	206.52	59.13	-389.48	170.45	63.815	-425.06	588.1	59.473	-67.73	668.3	39.998	-117.91	666.66	45.796	-21.558	769.77	48.852	-43.984	738.05	37.918	-0.53187
336	3.35	462.77	1411.8	-161.67	395.09	1140.6	-207.45	581.06	1313.4	-128.27	604.38	1142.5	-156.41	567.12	1350.3	-324.87	466.38	1323.1	29.815	386.46	1310.1	-57.32	557.08	884.38	-359.2	565.55	876.03	-112.81	399.1	926.37	-274.49	399.75	910.67	-194.5	501.08	976.69	-366.24	504.53	933.76	-79.301	489.01	638.92	-388.43	511.15	683.26	-389.64	466.04	677.69	-397.58	495.09	540.66	-416.46	448.96	419.5	-348.8	442.92	422.57	-230.97	580.19	680.73	-51.408	542.26	700	-57.676	573.75	724.64	-56.03	615.01	603.17	-0.59635	695.98	471.34	-43.458	695.37	462.09	-162.5	382.02	367.9	-358.42	401.46	334.96	-343.6	357.42	325.41	-355.97	315.9	258.86	-401.84	154.49	134.68	-272.21	139.74	155.23	-360.1	686.49	329.78	-29.174	677.27	366.2	-25.765	712.82	357.4	-35.594	700.32	238.7	11.375	649.01	69.905	-29.082	657.72	72.493	-122.61	90.558	168.03	-305.27	146.66	99.229	-283.74	128.59	125.25	-370.71	211.43	61.385	-385.57	174.33	66.999	-419.84	588.14	59.729	-67.704	668.38	39.845	-117.86	666.63	45.747	-21.583	769.88	48.709	-43.817	738.08	37.635	-0.41956
337	3.36	472.94	1413.5	-157.71	406.99	1142.3	-207.05	591.82	1315.7	-124.61	616.27	1144.8	-153.81	578.87	1353.8	-321.15	476.97	1322.4	33.324	397.2	1311	-53.862	569.57	886.33	-358.93	578	878.95	-113.43	411.56	929.06	-274.77	412	914.17	-194.26	514.65	979.39	-366.24	517.64	936.64	-78.505	501.67	640.84	-388.02	523.63	685.46	-389.28	478.68	679.47	-396.96	506.8	542.73	-416.56	461.37	421.84	-347.46	457.71	424.7	-229.84	587.96	680.53	-50.985	550.63	701.2	-57.862	582.65	724.84	-55.045	619.89	601.51	-0.70781	701.11	469.26	-42.641	699.96	461.09	-161.89	394.3	370.93	-356.84	413.82	337.76	-342.61	369.25	328.39	-353.57	326.03	262.16	-399.37	166.58	139.33	-266.15	149.87	160.26	-353.83	689.82	328.83	-28.795	681.21	365.31	-25.386	716.51	356	-35.096	704.26	236.7	11.049	649.29	69.569	-29.015	657.73	72.291	-122.35	102.8	174.62	-297.55	157.64	104.35	-277.5	137.55	130.29	-363.88	217.64	62.897	-381.2	179.5	70.233	-413.87	588	60.031	-67.513	668.21	39.751	-117.67	666.53	45.665	-21.321	769.72	48.5	-43.403	738.01	37.291	-0.022195
338	3.37	483.13	1415.5	-154.07	418.87	1144.8	-206.84	602.47	1318.4	-121.82	628.2	1147.5	-151.96	590.66	1357.8	-317.65	488.01	1322	36.103	408.03	1312.2	-51.348	581.78	888.68	-358.52	589.46	880.85	-113.09	423.56	932.09	-274.62	423.99	917.61	-193.98	527.63	982.69	-365.62	530.5	939.74	-77.927	514	643.03	-387.33	535.84	687.68	-388.63	490.98	681.48	-396.04	518.43	545.04	-416.16	474.54	424.08	-347.23	472.52	427.19	-229.07	595.77	680.78	-50.571	558.7	702.19	-57.525	591.11	724.87	-53.862	625.24	599.07	-1.0548	705.78	468.25	-42.295	704.78	461.49	-161.87	406.89	373.84	-355.35	426.09	340.64	-341.17	381.42	331.67	-351.84	336.14	266.15	-396.09	179.33	143.75	-260.88	161.15	164.81	-348.04	693.08	328.7	-28.644	684.67	364.83	-25.524	720.02	355.41	-34.931	706.76	236.56	11.146	648.86	69.599	-28.968	657.76	72.156	-122.22	116.41	180.72	-290.56	169.78	109.06	-271.93	147.53	135.18	-357.57	224.39	63.9	-376.79	185.64	73.064	-408.64	588.04	60.289	-67.432	668.18	39.657	-117.56	666.46	45.631	-21.152	769.59	48.416	-43.041	738.04	36.921	0.34266
339	3.38	493.36	1417.9	-150.84	430.53	1146.6	-206.63	613.18	1321	-118.94	639.65	1150.7	-149.73	602.24	1361.8	-314.6	498.68	1321.9	38.752	418.7	1313.8	-48.719	593.39	891.13	-357.3	600.34	882.95	-112.26	435.22	935.47	-274.38	435.45	921.03	-193.71	540.39	986.14	-365.16	541.15	942.82	-77.388	526.1	645.68	-386.71	547.66	690.24	-387.97	503.02	684.08	-395.43	530.3	547.88	-416.4	488.14	426.44	-346.95	487.67	429.58	-228.71	603.77	681.31	-50.642	566.58	703.09	-57.996	599.62	725.58	-53.602	632.72	600.09	-1.2886	711.13	468.44	-43.08	709.42	462.11	-162.08	420.23	376.67	-354.39	439.52	343.48	-340.58	394.54	334.72	-350.68	347.56	270.49	-394.27	193.49	147.72	-256.35	173.25	169.32	-343.19	695.72	328.96	-28.85	687.63	365.53	-25.986	723.26	355.41	-35.017	706.81	237.9	11.639	649.01	69.921	-29.166	658.13	72.261	-122.27	130.59	186.67	-284.61	182.68	113.9	-266.89	158.49	139.89	-352.33	232.33	65.672	-373.44	192.78	76.191	-404.25	588.21	60.686	-67.502	668.23	39.553	-117.62	666.57	45.697	-21.188	769.76	48.163	-43.03	738.2	36.753	0.3684
340	3.39	503.52	1420.5	-148.11	441.73	1149.6	-206.27	624.07	1323.7	-115.78	650.79	1153.8	-147.84	613.71	1365.7	-311.6	509.38	1322.1	40.821	429.25	1315.8	-46.71	604.43	893.83	-355.78	611.24	885.59	-110.44	446.41	938.67	-273.75	446.51	924.14	-193.23	552.11	989.46	-364.12	551.3	945.58	-76.98	537.93	648.49	-385.94	559.43	693.21	-387.32	514.77	686.8	-394.51	542.46	550.88	-416.48	502.36	428.59	-347.07	503.05	432.13	-228.79	612.07	682.74	-50.643	574.67	704.84	-57.707	607.88	726.96	-53.257	640.88	602.01	-1.179	715.7	469.02	-43.628	714.38	462.84	-162.71	434.39	379.27	-353.76	453.6	346.05	-340.03	408.43	337.61	-349.53	360.48	273.71	-392.39	207.63	152.55	-252.96	186	173.81	-339.65	698.14	329.33	-28.928	690.53	366.28	-26.436	726.06	355.39	-35.368	705.88	238.61	12.068	649.26	70.13	-29.473	658.52	72.512	-122.49	144.94	192.59	-280.52	196.21	119.06	-263.28	170.32	144.58	-348.32	241.24	67.544	-370.51	201.29	79.464	-400.41	588.34	61.019	-67.601	668.22	39.432	-117.73	666.69	45.74	-21.372	769.75	48.194	-43.204	738.33	36.728	0.28822
341	3.4	513.58	1423.3	-145.43	452.6	1152.8	-205.44	634.52	1326.8	-114.11	661.53	1157	-146.18	624.92	1370	-309.14	519.52	1323	42.785	439.81	1318.4	-44.711	614.98	896.65	-354.5	622.1	888.29	-108.46	456.98	942.23	-272.68	457.39	927.34	-192.76	562.88	992.57	-363.41	561.38	948.17	-76.952	550.26	651.41	-385.75	571.05	696.34	-386.51	526.53	689.31	-392.81	555.04	553.79	-416.88	517.5	431.22	-347.58	518.92	434.74	-229.28	620.38	684.88	-50.49	583.47	707.07	-58.097	616.39	729.04	-52.88	648.97	604.75	-1.1341	720.08	469.34	-44.553	719.27	463.27	-163.65	449.66	381.87	-353.96	468.54	348.32	-339.9	423.46	340.16	-349.32	375.12	276.65	-392.34	221.92	158.02	-250.93	199.74	178.75	-337.63	700.12	329.69	-29.679	693.31	366.74	-27.211	728.93	355.75	-35.817	705.96	238.99	11.416	649.41	70.639	-29.65	659.07	72.723	-122.74	159.53	199.55	-278.56	209.77	124.92	-260.58	183.19	149.37	-345.77	251.16	69.239	-367.92	211.11	82.133	-396.94	588.4	61.399	-67.698	668.42	39.428	-117.88	666.77	45.877	-21.504	769.81	48.183	-43.248	738.25	36.394	0.26158
342	3.41	523.62	1426.5	-143.52	463.21	1155.9	-204.7	645.04	1330	-111.87	671.96	1160.1	-144.67	635.93	1374.1	-307.12	529.21	1324.3	44.43	449.82	1320.2	-43.519	624.98	899.79	-353.58	632.9	891.15	-106.75	467.63	945.35	-271.88	468.23	930.59	-192.2	573.15	996.11	-362.7	571.27	950.76	-76.502	562.55	654.49	-385.38	582.58	699.56	-385.94	537.88	692.29	-391.73	568.7	557.3	-417.78	533.59	433.62	-348.71	535.6	436.94	-230.32	629.01	687.29	-50.299	592.17	709.84	-58.158	625.87	731.43	-53.152	656.62	606.54	-1.425	724.18	469.37	-45.658	723.9	463.2	-164.57	465.82	384.91	-354.51	484.59	351.57	-340.82	439.3	343.65	-350.05	390.96	279.1	-392.3	235.39	165.29	-249.36	214.25	183.77	-337.16	702.99	329.8	-30.188	695.93	366.97	-27.778	731.81	355.51	-36.644	707.32	239.1	11.083	649.62	70.769	-29.767	659.02	72.772	-122.83	174.23	206.9	-278.88	223.11	132.13	-258.64	196.94	154.47	-344.51	263.02	71.729	-363.19	223.4	84.577	-393.5	588.5	61.688	-67.774	668.35	39.272	-118.09	666.89	45.941	-21.659	769.82	48.128	-43.349	738.4	36.322	0.16398
343	3.42	533.36	1429.8	-141.54	473.57	1159.4	-203.76	655.08	1333.3	-110.09	682.2	1163.5	-143.26	646.57	1378.2	-305.18	538.51	1326.2	46.227	459.84	1322.7	-42.438	634.49	902.39	-352.64	643.39	894.2	-105.8	477.8	948.42	-270.64	478.51	933.52	-190.56	582.49	999.06	-361.9	581.59	953.45	-75.725	575.09	657.62	-385.37	594.23	703.06	-385.89	549.6	695.1	-391.11	582.97	560.95	-418.66	550.35	436.18	-349.79	553.1	439.31	-231.53	637.44	689.22	-50.007	601.2	712.46	-57.795	635.87	733.67	-53.581	663.39	607.8	-1.6993	728.71	469.18	-46.815	727.58	462.45	-165.42	482.91	388.18	-355.75	501.65	354.82	-341.5	456.06	347.1	-350.7	407.68	282.73	-392.51	248.94	173.71	-249.03	229.4	188.96	-337.84	705.54	329.83	-30.808	699.22	366.85	-28.328	734.88	354.74	-37.693	709.76	238.68	10.499	649.85	71	-29.84	659.06	72.666	-122.97	188.61	215.18	-281.51	235.95	140.65	-257.4	211.78	159.33	-344.33	277.1	74.98	-357.97	238.03	86.919	-389.76	588.59	62.02	-67.857	668.22	39.327	-118.03	666.99	46.045	-21.737	770.12	47.937	-43.36	738.51	36.208	0.11561
